<mxfile host="app.diagrams.net" modified="2023-11-22T01:19:06.158Z" agent="Mozilla/5.0 (Windows NT 10.0; Win64; x64) AppleWebKit/537.36 (KHTML, like Gecko) Chrome/118.0.0.0 Safari/537.36 OPR/104.0.0.0" version="22.1.3" etag="BRHyw5M5XLyRTVVo0Mbv" type="github">
  <diagram name="Page-1" id="NPRJogKDgoZlr3PBuN6Z">
    <mxGraphModel>
      <root>
        <mxCell id="0" />
        <mxCell id="1" parent="0" />
      </root>
    </mxGraphModel>
  </diagram>
</mxfile>
